<svg width="15" height="23" viewBox="0 0 15 23" fill="none" xmlns="http://www.w3.org/2000/svg">
<circle cx="7.5" cy="11.5" r="7.5" fill="#FD8516"/>
<path d="M3.33603 1.8437C3.82383 1.45743 4.36543 1.14297 4.94917 0.907343L5.2497 1.59342C4.74648 1.79853 4.27872 2.07127 3.85695 2.40541L3.33603 1.8437ZM12.899 8.0968C13.0637 7.60836 13.1519 7.09982 13.1618 6.58245L13.8349 6.56667L13.9617 6.56916C13.952 7.18054 13.8492 7.77101 13.6558 8.33748L12.899 8.0968ZM11.2917 2.52713C10.8825 2.17966 10.425 1.89187 9.92935 1.66998L10.2555 0.993963C10.8306 1.24864 11.3602 1.58074 11.833 1.98225L11.2917 2.52713ZM2.14402 3.08837L2.79614 3.51728C2.4905 3.94506 2.25411 4.40958 2.09196 4.90066L1.3245 4.69094C1.5119 4.12172 1.78728 3.58342 2.14402 3.08837ZM12.311 3.67259L12.979 3.26497C13.3171 3.77134 13.572 4.31814 13.738 4.89303L12.9636 5.07764C12.8196 4.58172 12.6004 4.10992 12.311 3.67259ZM6.66137 0.466837C7.28914 0.390459 7.93728 0.401017 8.55917 0.497288L8.41837 1.22583C7.8802 1.14329 7.31867 1.13419 6.77478 1.19934L6.66137 0.466837ZM1.83752 6.48474C1.83752 6.96477 1.90541 7.44006 2.03893 7.89832L1.27245 8.11112C1.11645 7.58369 1.0375 7.03704 1.0375 6.48474C1.0375 6.43961 1.03799 6.39467 1.039 6.34993L1.83869 6.37814C1.83792 6.41358 1.83752 6.44915 1.83752 6.48474ZM8.26257 12.5114L8.18264 11.7751C8.73028 11.7133 9.26235 11.577 9.76626 11.3694L10.095 12.0441C9.51221 12.2843 8.8967 12.4413 8.26257 12.5114ZM12.8792 9.84936C12.5266 10.3455 12.1002 10.7887 11.609 11.1688L11.1145 10.5869C11.5369 10.2572 11.9047 9.87352 12.2099 9.44435L12.8792 9.84936ZM6.60044 11.7465L6.48997 12.4796C5.85999 12.3866 5.25138 12.2071 4.67787 11.9454L5.03463 11.2831C5.53066 11.5092 6.05655 11.6648 6.60044 11.7465ZM3.71864 10.4511L3.19985 11.0148C2.72495 10.6172 2.31709 10.1589 1.98564 9.65066L2.6717 9.27029C2.95866 9.7096 3.31014 10.1061 3.71864 10.4511Z" fill="white" stroke="#FD8516" stroke-width="0.2"/>
<g filter="url(#filter0_d_112_92)">
<path d="M9.99895 12.0839H9.1155V8.28516H6.87865L4.28467 12.5319V13.3988H7.44256V14.7137H9.1155V13.3988H9.99895V12.0839ZM6.94444 10.6033C7.14181 10.2722 7.32978 9.90204 7.45196 9.55139H7.47076L7.44256 10.6131V12.0839H6.04219L6.94444 10.6033Z" fill="white"/>
</g>
<defs>
<filter id="filter0_d_112_92" x="0.284668" y="8.28516" width="13.7143" height="14.4286" filterUnits="userSpaceOnUse" color-interpolation-filters="sRGB">
<feFlood flood-opacity="0" result="BackgroundImageFix"/>
<feColorMatrix in="SourceAlpha" type="matrix" values="0 0 0 0 0 0 0 0 0 0 0 0 0 0 0 0 0 0 127 0" result="hardAlpha"/>
<feOffset dy="4"/>
<feGaussianBlur stdDeviation="2"/>
<feComposite in2="hardAlpha" operator="out"/>
<feColorMatrix type="matrix" values="0 0 0 0 0 0 0 0 0 0 0 0 0 0 0 0 0 0 0.25 0"/>
<feBlend mode="normal" in2="BackgroundImageFix" result="effect1_dropShadow_112_92"/>
<feBlend mode="normal" in="SourceGraphic" in2="effect1_dropShadow_112_92" result="shape"/>
</filter>
</defs>
</svg>
