<svg width="15" height="16" viewBox="0 0 15 16" fill="none" xmlns="http://www.w3.org/2000/svg">
<g clip-path="url(#clip0_1_623)">
<path d="M5.72191 14.0908C5.72188 14.095 5.72162 14.0991 5.72162 14.1033C5.72162 15.151 6.51787 16.0004 7.5001 16.0004C8.48232 16.0004 9.27857 15.151 9.27857 14.1033C9.27857 14.0991 9.27831 14.095 9.27828 14.0908H5.72191Z" fill="#FD8516"/>
<path d="M13.1785 11.7192L11.5779 9.21111C11.5779 8.44335 11.5779 6.56735 11.5779 6.08206C11.5779 3.97184 10.169 2.21284 8.29987 1.81644V0.852887C8.29984 0.381875 7.94186 0 7.50026 0C7.05865 0 6.70068 0.381875 6.70068 0.852887V1.81647C4.83155 2.21291 3.42264 3.97191 3.42264 6.08209C3.42264 6.90819 3.42264 8.73233 3.42264 9.21115L1.822 11.7192C1.6534 11.9834 1.63557 12.3253 1.77567 12.6078C1.91576 12.8903 2.19079 13.067 2.49041 13.067H12.5101C12.8097 13.067 13.0848 12.8903 13.2249 12.6078C13.365 12.3253 13.3471 11.9833 13.1785 11.7192Z" fill="#FD8516"/>
</g>
<defs>
<clipPath id="clip0_1_623">
<rect width="15" height="16" fill="white"/>
</clipPath>
</defs>
</svg>
