<svg width="15" height="16" viewBox="0 0 15 16" fill="none" xmlns="http://www.w3.org/2000/svg">
<g clip-path="url(#clip0_1_689)">
<path d="M9.88271 15.4539H2.27332C1.34981 15.4539 0.599197 14.7033 0.599197 13.7798V5.56158C0.599197 4.63808 1.34981 3.88757 2.27332 3.88757H2.57762C2.82965 3.88757 3.03419 4.09211 3.03419 4.34414C3.03419 4.59617 2.82965 4.80071 2.57762 4.80071H2.27332C1.85387 4.80071 1.51233 5.14213 1.51233 5.56158V13.7798C1.51233 14.1993 1.85387 14.5408 2.27332 14.5408H9.88271C10.3022 14.5408 10.6437 14.1993 10.6437 13.7798V13.4755C10.6437 13.2235 10.8482 13.0189 11.1003 13.0189C11.3523 13.0189 11.5568 13.2235 11.5568 13.4755V13.7798C11.5568 14.7033 10.8062 15.4539 9.88271 15.4539Z" fill="#CBCBCB"/>
<path d="M12.3178 11.8014H5.92586C5.00236 11.8014 4.25174 11.0508 4.25174 10.1273V2.51787C4.25174 1.59437 5.00236 0.84375 5.92586 0.84375H12.3178C13.2413 0.84375 13.9918 1.59437 13.9918 2.51787V10.1273C13.9918 11.0508 13.2413 11.8014 12.3178 11.8014ZM5.92586 1.75689C5.50641 1.75689 5.16488 2.09842 5.16488 2.51787V10.1273C5.16488 10.5467 5.50641 10.8882 5.92586 10.8882H12.3178C12.7373 10.8882 13.0787 10.5467 13.0787 10.1273V2.51787C13.0787 2.09842 12.7373 1.75689 12.3178 1.75689H5.92586Z" fill="#CBCBCB"/>
</g>
<defs>
<clipPath id="clip0_1_689">
<rect width="14.6102" height="14.6102" fill="white" transform="translate(0 0.84375)"/>
</clipPath>
</defs>
</svg>
