<svg width="15" height="16" viewBox="0 0 15 16" fill="none" xmlns="http://www.w3.org/2000/svg">
<g clip-path="url(#clip0_1_731)">
<path d="M12.001 8.14911C11.7129 8.14911 11.4792 8.38272 11.4792 8.67091V13.8887C11.4792 14.1769 11.2456 14.4105 10.9575 14.4105H1.56535C1.27717 14.4105 1.04356 14.1769 1.04356 13.8887V3.45305C1.04356 3.16487 1.27717 2.93125 1.56535 2.93125H7.82677C8.11496 2.93125 8.34857 2.69764 8.34857 2.40946C8.34857 2.12128 8.11496 1.8877 7.82677 1.8877H1.56535C0.700832 1.8877 0 2.58853 0 3.45305V13.8887C0 14.7533 0.700832 15.4541 1.56535 15.4541H10.9575C11.822 15.4541 12.5228 14.7533 12.5228 13.8887V8.67088C12.5228 8.38272 12.2892 8.14911 12.001 8.14911Z" fill="#CBCBCB"/>
<path d="M14.0257 1.42881C13.651 1.0541 13.1429 0.843636 12.613 0.843697C12.0828 0.842169 11.5742 1.053 11.2005 1.42915L4.32757 8.30154C4.27055 8.35899 4.22754 8.42882 4.20182 8.50556L3.15826 11.6363C3.06719 11.9097 3.21501 12.2051 3.48842 12.2962C3.54147 12.3139 3.59702 12.3229 3.65291 12.3229C3.70892 12.3229 3.76459 12.3139 3.81779 12.2963L6.9485 11.2528C7.02539 11.2271 7.09525 11.1839 7.15252 11.1265L14.0255 4.25357C14.8055 3.47358 14.8056 2.20889 14.0257 1.42881Z" fill="#CBCBCB"/>
</g>
<defs>
<clipPath id="clip0_1_731">
<rect width="14.6102" height="14.6102" fill="white" transform="translate(0 0.84375)"/>
</clipPath>
</defs>
</svg>
