<svg width="16" height="17" viewBox="0 0 16 17" fill="none" xmlns="http://www.w3.org/2000/svg">
<circle cx="8" cy="8.83838" r="8" fill="#D7D7D7"/>
<path d="M8.16858 4.87726C6.43116 4.87726 5.4034 5.74596 5.15869 6.98171L6.36999 7.55677C6.46787 6.59019 7.11634 6.02737 8.08293 6.02737C9.1107 6.02737 9.60011 6.48007 9.60011 7.17747C9.60011 8.0217 8.97611 8.46217 7.37328 8.65793L7.39775 10.5054H8.64575L8.68246 9.26969C9.96717 9.13511 10.9949 8.46217 10.9949 6.99395C10.9949 5.63584 9.82034 4.87726 8.16858 4.87726ZM8.02175 11.4476C7.45893 11.4476 7.09187 11.7901 7.09187 12.3163C7.09187 12.8424 7.45893 13.1972 8.02175 13.1972C8.57234 13.1972 8.92717 12.8424 8.92717 12.3163C8.92717 11.7901 8.57234 11.4476 8.02175 11.4476Z" fill="#6C6C6C"/>
</svg>
