<svg width="14" height="14" viewBox="0 0 14 14" fill="none" xmlns="http://www.w3.org/2000/svg">
<circle cx="7" cy="7" r="6.5" fill="white" stroke="#B6B6B6"/>
<path d="M7.02966 3.36853C5.48406 3.36853 4.69686 4.15551 4.53366 5.24435L5.78166 5.8265C5.83926 5.03952 6.28086 4.60829 6.94326 4.60829C7.62486 4.60829 7.95126 4.95327 7.95126 5.4923C7.95126 6.1607 7.49046 6.52723 6.25206 6.67816L6.30966 8.30603H7.48086L7.54806 7.29265C8.56566 7.17407 9.36246 6.6027 9.36246 5.27669C9.36246 4.00458 8.39286 3.36853 7.02966 3.36853ZM6.89526 9.00676C6.38646 9.00676 6.07926 9.33018 6.07926 9.84765C6.07926 10.3651 6.38646 10.6885 6.89526 10.6885C7.39446 10.6885 7.72086 10.3651 7.72086 9.84765C7.72086 9.33018 7.39446 9.00676 6.89526 9.00676Z" fill="#B6B6B6"/>
</svg>
