<svg width="18" height="15" viewBox="0 0 18 15" fill="none" xmlns="http://www.w3.org/2000/svg">
<circle cx="7.5" cy="7.5" r="7.5" fill="#FD8516"/>
<path d="M7.67199 3.17081L7.14439 2.56554C7.63461 2.15135 8.179 1.81439 8.76569 1.56209L9.07133 2.30442C8.56553 2.52315 8.09556 2.81421 7.67199 3.17081ZM16.7346 9.24205C16.902 8.71726 16.9913 8.17068 17.0006 7.61462L17.6757 7.59778L17.8031 7.60044C17.794 8.25712 17.6904 8.89122 17.495 9.49933L16.7346 9.24205ZM14.0879 1.6546C14.666 1.92732 15.1984 2.28323 15.6735 2.71381L15.1256 3.30062C14.7145 2.92967 14.2547 2.62245 13.7564 2.38574L14.0879 1.6546ZM5.13001 5.60934C5.31816 4.99801 5.59545 4.42016 5.95497 3.88912L6.61256 4.34926C6.30318 4.8081 6.06437 5.30656 5.90107 5.83351L5.13001 5.60934ZM16.1434 4.51449L16.8167 4.07742C17.1575 4.62066 17.4142 5.20767 17.5808 5.82514L16.803 6.0224C16.658 5.49012 16.4365 4.98371 16.1434 4.51449ZM10.4821 1.09151C11.1124 1.00971 11.7633 1.02102 12.3878 1.12412L12.2443 1.91403C11.7051 1.82621 11.1426 1.81653 10.5977 1.88585L10.4821 1.09151ZM5.64857 7.3967C5.64771 7.43671 5.64725 7.47687 5.64725 7.51706C5.64725 8.03107 5.71601 8.54002 5.85126 9.03062L5.08141 9.25801C4.9242 8.69353 4.84463 8.10835 4.84463 7.51706C4.84463 7.46668 4.84516 7.41653 4.84628 7.36659L5.64857 7.3967ZM12.0076 13.1536C12.5568 13.0878 13.0902 12.9427 13.5953 12.7217L13.9296 13.4516C13.3443 13.709 12.726 13.8771 12.0891 13.9521L12.0076 13.1536ZM16.722 11.1032C16.3676 11.6357 15.9386 12.1111 15.4443 12.5184L14.9434 11.8913C15.3694 11.5387 15.74 11.128 16.0471 10.6687L16.722 11.1032ZM10.311 13.9181C9.67827 13.8186 9.06692 13.6264 8.49083 13.346L8.85347 12.6297C9.35078 12.8705 9.87812 13.0363 10.4236 13.1232L10.311 13.9181ZM7.53781 11.747L7.01261 12.354C6.53465 11.9279 6.12426 11.4363 5.7911 10.8908L6.48247 10.483C6.77135 10.9533 7.12563 11.3778 7.53781 11.747Z" fill="white" stroke="#FD8516" stroke-width="0.2"/>
<path d="M9.99895 8.08386H9.1155V4.28516H6.87865L4.28467 8.53191V9.39879H7.44256V10.7137H9.1155V9.39879H9.99895V8.08386ZM6.94444 6.60334C7.14181 6.27217 7.32978 5.90204 7.45196 5.55139H7.47076L7.44256 6.61308V8.08386H6.04219L6.94444 6.60334Z" fill="white"/>
</svg>
