<svg width="18" height="19" viewBox="0 0 18 19" fill="none" xmlns="http://www.w3.org/2000/svg">
<ellipse cx="9" cy="9.41409" rx="9" ry="9.03006" fill="#22B14C"/>
<path d="M11.9914 5.55447C11.6744 5.3071 11.2175 5.36438 10.9709 5.68248L5.87999 12.2497C5.50604 12.7322 5.85631 13.4275 6.45358 13.4275C6.67031 13.4275 6.8848 13.3306 7.02817 13.1457L12.119 6.57846C12.3656 6.26036 12.3085 5.80188 11.9914 5.55447Z" fill="white"/>
<path d="M11.5448 13.4276C12.3481 13.4276 12.9993 12.7742 12.9993 11.9682C12.9993 11.1622 12.3481 10.5089 11.5448 10.5089C10.7415 10.5089 10.0903 11.1622 10.0903 11.9682C10.0903 12.7742 10.7415 13.4276 11.5448 13.4276Z" fill="white"/>
<path d="M6.45453 8.31952C7.25785 8.31952 7.90907 7.66613 7.90907 6.86014C7.90907 6.05414 7.25785 5.40076 6.45453 5.40076C5.65122 5.40076 5 6.05414 5 6.86014C5 7.66613 5.65122 8.31952 6.45453 8.31952Z" fill="white"/>
</svg>
