<svg width="14" height="14" viewBox="0 0 14 14" fill="none" xmlns="http://www.w3.org/2000/svg">
<g clip-path="url(#clip0_1_766)">
<path d="M0.235188 6.25834L6.51653 0.534814C6.79223 0.283552 7.20799 0.28358 7.48359 0.534786L13.765 6.25837C13.9858 6.45962 14.0588 6.7697 13.9509 7.0483C13.8429 7.32691 13.5802 7.50691 13.2814 7.50691H12.2781V13.2415C12.2781 13.4688 12.0938 13.6532 11.8664 13.6532H8.42348C8.19611 13.6532 8.01176 13.4688 8.01176 13.2415V9.75962H5.98827V13.2415C5.98827 13.4688 5.80392 13.6532 5.57656 13.6532H2.13377C1.90641 13.6532 1.72206 13.4689 1.72206 13.2415V7.50691H0.718625C0.419868 7.50691 0.157067 7.32688 0.0491419 7.0483C-0.0586195 6.76967 0.0143328 6.45962 0.235188 6.25834Z" fill="#DCDCDC"/>
<path d="M1.82927 1.16809H4.59424L1.41756 4.05657V1.57978C1.41756 1.35241 1.60188 1.16809 1.82927 1.16809Z" fill="#DCDCDC"/>
</g>
<defs>
<clipPath id="clip0_1_766">
<rect width="14" height="14" fill="white" transform="matrix(-1 0 0 1 14 0)"/>
</clipPath>
</defs>
</svg>
