<svg width="16" height="16" viewBox="0 0 16 16" fill="none" xmlns="http://www.w3.org/2000/svg">
<path d="M8 0C3.58166 0 0 3.58178 0 8C0 12.4185 3.58166 16 8 16C12.4183 16 16 12.4185 16 8C16 3.58178 12.4183 0 8 0ZM8 4C8.55231 4 9 4.44775 9 5C9 5.5525 8.55231 6 8 6C7.44769 6 7 5.5525 7 5C7 4.44775 7.44769 4 8 4ZM9.5 12H6.5C6.22388 12 6 11.7764 6 11.5C6 11.2239 6.22388 11 6.5 11H7V8H6.5C6.22388 8 6 7.77637 6 7.5C6 7.22388 6.22388 7 6.5 7H8.5C8.77612 7 9 7.22388 9 7.5V11H9.5C9.77612 11 10 11.2239 10 11.5C10 11.7764 9.77612 12 9.5 12Z" fill="#CBCBCB"/>
</svg>
