<svg width="17" height="17" viewBox="0 0 17 17" fill="none" xmlns="http://www.w3.org/2000/svg">
<path d="M8.5 0C4.93 0 2.02539 2.90461 2.02539 6.47461C2.02539 7.8874 2.47164 9.2298 3.31699 10.3561L8.1009 16.7992C8.11285 16.8148 8.13111 16.8207 8.14439 16.8347C8.38346 17.0907 8.72844 17.0263 8.89877 16.7992C10.2764 14.961 12.8015 11.5281 13.7723 10.2332C13.7723 10.2332 13.7727 10.2322 13.773 10.2315L13.779 10.2236C14.5612 9.12455 14.9746 7.8283 14.9746 6.47461C14.9746 2.90461 12.07 0 8.5 0ZM8.5 9.96758C6.57787 9.96758 5.00703 8.39674 5.00703 6.47461C5.00703 4.55248 6.57787 2.98164 8.5 2.98164C10.4221 2.98164 11.993 4.55248 11.993 6.47461C11.993 8.39674 10.4221 9.96758 8.5 9.96758Z" fill="#23C2A8"/>
</svg>
