<svg width="13" height="13" viewBox="0 0 13 13" fill="none" xmlns="http://www.w3.org/2000/svg">
<g clip-path="url(#clip0_1_589)">
<rect width="13" height="13" transform="translate(13 13) rotate(-180)" fill="url(#paint0_linear_1_589)"/>
<path d="M0.461773 11.2067C0.741096 11.2322 0.988121 11.0264 1.01359 10.7471L1.08087 10.009C2.22241 11.8017 4.204 13 6.50004 13C8.97007 13 11.1468 11.5903 12.2274 9.47441C12.355 9.22464 12.2559 8.91876 12.0061 8.7912C11.7563 8.66364 11.4505 8.76269 11.3229 9.01248C10.4084 10.8031 8.572 11.9844 6.50004 11.9844C4.61157 11.9844 2.9073 11.001 1.93093 9.46034L2.65499 9.97747C2.88323 10.1405 3.20038 10.0876 3.36336 9.85938C3.52635 9.63115 3.47348 9.31402 3.24527 9.15101L1.04962 7.58286C0.727817 7.35345 0.283962 7.56346 0.248771 7.94998L0.00220299 10.6548C-0.0232897 10.9342 0.182476 11.1812 0.461773 11.2067Z" fill="#23C2A8"/>
<path d="M0.993913 4.20872C1.24371 4.33626 1.54956 4.23721 1.67712 3.98744C2.59162 2.19679 4.42805 1.01554 6.5 1.01554C8.38848 1.01554 10.0927 1.99894 11.0691 3.53957L10.3451 3.02244C10.1168 2.85946 9.79969 2.91232 9.63668 3.14053C9.4737 3.36877 9.52656 3.6859 9.75477 3.84891L11.9504 5.41706C12.2683 5.64415 12.7157 5.44045 12.7513 5.04994L12.9978 2.34507C13.0233 2.06577 12.8175 1.81872 12.5382 1.79325C12.2586 1.76784 12.0119 1.97383 11.9864 2.25288L11.9191 2.99096C10.7776 1.1982 8.79605 -8.7738e-05 6.5 -8.7738e-05C4.02997 -8.7738e-05 1.85321 1.40965 0.772634 3.52551C0.645071 3.77527 0.744145 4.08116 0.993913 4.20872Z" fill="#23C2A8"/>
</g>
<defs>
<linearGradient id="paint0_linear_1_589" x1="6.5" y1="0" x2="6.5" y2="13" gradientUnits="userSpaceOnUse">
<stop stop-color="white"/>
<stop offset="1" stop-color="white" stop-opacity="0"/>
</linearGradient>
<clipPath id="clip0_1_589">
<rect width="13" height="13" fill="white" transform="translate(13 13) rotate(-180)"/>
</clipPath>
</defs>
</svg>
