<svg width="22" height="22" viewBox="0 0 22 22" fill="none" xmlns="http://www.w3.org/2000/svg">
<ellipse cx="9.10652" cy="10" rx="8.75593" ry="9" fill="#A349A4"/>
<g clip-path="url(#clip0_1_532)">
<path d="M7.02337 8.79099C6.82227 8.79099 6.65253 9.01249 6.65253 9.27438C6.65253 9.53649 6.82225 9.758 7.02337 9.758C7.22446 9.758 7.3944 9.53649 7.3944 9.27438C7.3944 9.01249 7.22446 8.79099 7.02337 8.79099Z" fill="white"/>
<path d="M10.2757 11.3474C10.0747 11.3474 9.90491 11.5689 9.90491 11.831C9.90491 12.0929 10.0746 12.3144 10.2757 12.3144C10.4768 12.3144 10.6468 12.0929 10.6468 11.831C10.6468 11.5689 10.4768 11.3474 10.2757 11.3474Z" fill="white"/>
<path d="M12.3825 7.43108C9.11513 4.4246 9.28226 4.53943 9.02249 4.43852C8.65333 4.29208 8.21406 4.36865 7.91063 4.64778L4.88578 7.43108C4.54566 7.74389 4.35059 8.18905 4.35059 8.65268V13.5814C4.35059 14.1621 4.82069 14.6348 5.3984 14.6348H11.8697C12.4474 14.6348 12.9175 14.1621 12.9175 13.5814V8.65268C12.9175 8.18905 12.7224 7.74389 12.3825 7.43108ZM8.32229 6.37448C8.34182 6.18718 8.51361 6.05417 8.70581 6.09024C8.88963 6.12857 8.99317 6.30495 8.9589 6.46922C8.92248 6.64424 8.75785 6.75572 8.57991 6.72231C8.40997 6.68686 8.30625 6.53247 8.32229 6.37448ZM6.00772 9.27444C6.00772 8.65247 6.46321 8.14651 7.02311 8.14651C7.58323 8.14651 8.0387 8.65247 8.0387 9.27444C8.0387 9.89641 7.58321 10.4026 7.02311 10.4026C6.46321 10.4026 6.00772 9.89641 6.00772 9.27444ZM7.85522 12.7046C7.62749 12.7046 7.46855 12.4711 7.55831 12.2575L9.12714 8.5184C9.19611 8.35426 9.38495 8.27692 9.5491 8.34588C9.71324 8.41463 9.79037 8.6037 9.72162 8.76784L8.15257 12.507C8.10079 12.6303 7.98134 12.7046 7.85522 12.7046ZM10.2751 12.959C9.71517 12.959 9.2597 12.4531 9.2597 11.8311C9.2597 11.2091 9.71519 10.7029 10.2751 10.7029C10.835 10.7029 11.2907 11.2091 11.2907 11.8311C11.2907 12.4531 10.835 12.959 10.2751 12.959Z" fill="white"/>
<path d="M15.2696 10.9705C14.2203 7.91595 13.6375 6.21765 13.6292 6.19836C13.4468 5.77598 13.0923 5.44748 12.657 5.29731C12.632 5.28882 12.7794 5.32461 10.4421 4.77008L12.8186 6.95676C13.291 7.39117 13.562 8.00928 13.562 8.65274V12.8293L14.7213 12.333C15.2457 12.1061 15.4896 11.4971 15.2696 10.9705Z" fill="white"/>
</g>
<defs>
<clipPath id="clip0_1_532">
<rect width="11" height="11" fill="white" transform="translate(4.35059 4)"/>
</clipPath>
</defs>
</svg>
