<svg width="14" height="14" viewBox="0 0 14 14" fill="none" xmlns="http://www.w3.org/2000/svg">
<path d="M10.3236 9.60735C11.0158 8.70474 11.4299 7.59606 11.4299 6.39416C11.4299 3.38546 8.86606 0.9375 5.71494 0.9375C2.56381 0.9375 0 3.38546 0 6.39416C0 9.40286 2.56384 11.8508 5.71496 11.8508C6.97376 11.8508 8.13503 11.4554 9.08036 10.7945L12.1669 13.5382C12.5002 13.8344 13.005 13.8254 13.3275 13.5175V13.5175C13.6897 13.1717 13.6793 12.5904 13.3051 12.2577L10.3236 9.60735ZM5.71496 10.1718C3.53321 10.1718 1.75846 8.4773 1.75846 6.39416C1.75846 4.31102 3.53321 2.61648 5.71496 2.61648C7.89672 2.61648 9.67147 4.31102 9.67147 6.39416C9.67147 8.4773 7.89669 10.1718 5.71496 10.1718Z" fill="#BABABA"/>
</svg>
