<svg width="18" height="18" viewBox="0 0 18 18" fill="none" xmlns="http://www.w3.org/2000/svg">
<g clip-path="url(#clip0_535_32)">
<path d="M16.1602 2.80285L9.26961 0.0517906C9.097 -0.0171067 8.90297 -0.0171405 8.73039 0.0517906L1.83976 2.80285C1.57732 2.90765 1.40625 3.15403 1.40625 3.42728V6.77157C1.40625 11.3764 4.30063 15.5186 8.73429 17.2588C8.90459 17.3256 9.09538 17.3256 9.26571 17.2588C13.6993 15.5187 16.5938 11.3765 16.5938 6.77157V3.42728C16.5938 3.15403 16.4227 2.90765 16.1602 2.80285ZM15.1875 6.77157C15.1875 10.6862 12.7969 14.2898 9 15.8984C5.30459 14.3328 2.8125 10.7923 2.8125 6.77157V3.87867L9 1.4083L15.1875 3.87867V6.77157ZM8.22284 9.05059L11.245 6.1445C11.5196 5.88047 11.9648 5.88044 12.2394 6.1445C12.514 6.40856 12.5139 6.83665 12.2393 7.10068L8.72002 10.4849C8.44537 10.749 8.00019 10.7489 7.72566 10.4849L5.76063 8.59529C5.48603 8.33123 5.48603 7.90314 5.76063 7.63911C6.03524 7.37509 6.48042 7.37505 6.75499 7.63911L8.22284 9.05059Z" fill="#81C719"/>
</g>
<defs>
<clipPath id="clip0_535_32">
<rect width="18" height="17.3088" fill="white"/>
</clipPath>
</defs>
</svg>
