<svg width="26" height="27" viewBox="0 0 26 27" fill="none" xmlns="http://www.w3.org/2000/svg">
<g clip-path="url(#clip0_517_57)">
<path d="M8.42969 17.224H22.1916C22.5324 17.224 22.8313 16.9979 22.9236 16.6695L25.9706 5.96961C26.0361 5.73894 25.9913 5.49115 25.8471 5.29949C25.7027 5.10842 25.4781 4.99558 25.2385 4.99558H6.67119L6.12668 2.5372C6.04932 2.18711 5.73987 1.93852 5.38281 1.93852H0.761719C0.34079 1.93852 0 2.28045 0 2.70279C0 3.12532 0.34079 3.46705 0.761719 3.46705H4.77145L7.52217 15.8863C6.71284 16.2394 6.14453 17.0476 6.14453 17.9883C6.14453 19.2525 7.16968 20.281 8.42969 20.281H22.1916C22.6127 20.281 22.9533 19.9393 22.9533 19.5168C22.9533 19.0944 22.6127 18.7525 22.1916 18.7525H8.42969C8.01015 18.7525 7.66797 18.41 7.66797 17.9883C7.66797 17.5665 8.01015 17.224 8.42969 17.224Z" fill="white"/>
<path d="M7.66788 22.5738C7.66788 23.8382 8.69302 24.8666 9.95323 24.8666C11.2132 24.8666 12.2384 23.8382 12.2384 22.5738C12.2384 21.3096 11.2132 20.281 9.95323 20.281C8.69302 20.281 7.66788 21.3096 7.66788 22.5738Z" fill="white"/>
<path d="M18.383 22.5738C18.383 23.8382 19.4081 24.8666 20.6682 24.8666C21.9284 24.8666 22.9533 23.8382 22.9533 22.5738C22.9533 21.3096 21.9284 20.281 20.6682 20.281C19.4081 20.281 18.383 21.3096 18.383 22.5738Z" fill="white"/>
</g>
<defs>
<clipPath id="clip0_517_57">
<rect width="26" height="26.0869" fill="white" transform="translate(0 0.358887)"/>
</clipPath>
</defs>
</svg>
