<svg width="16" height="17" viewBox="0 0 16 17" fill="none" xmlns="http://www.w3.org/2000/svg">
<g clip-path="url(#clip0_1_699)">
<path d="M10.7624 6.21619L9.54255 6.17145L9.27808 13.3939L10.498 13.4384L10.7624 6.21619Z" fill="#CBCBCB"/>
<path d="M8.40224 6.19443H7.18156V13.4169H8.40224V6.19443Z" fill="#CBCBCB"/>
<path d="M6.30638 13.3945L6.04191 6.17203L4.82202 6.2168L5.08653 13.4392L6.30638 13.3945Z" fill="#CBCBCB"/>
<path d="M0.529068 3.18323V4.40391H1.80104L2.81011 15.8709C2.83778 16.186 3.10168 16.4277 3.41802 16.4277H12.1458C12.4621 16.4277 12.7262 16.1859 12.7537 15.8707L13.7628 4.40391H15.0553V3.18323H0.529068ZM11.5867 15.2071H3.97692L3.0264 4.40391H12.5374L11.5867 15.2071Z" fill="#CBCBCB"/>
<path d="M9.78568 0.84375H5.79808C5.23718 0.84375 4.78085 1.30007 4.78085 1.86098V3.79376H6.00153V2.06443H9.58223V3.79376H10.8029V1.86098C10.8029 1.30007 10.3466 0.84375 9.78568 0.84375Z" fill="#CBCBCB"/>
</g>
<defs>
<clipPath id="clip0_1_699">
<rect width="15.5842" height="15.5842" fill="white" transform="translate(0 0.84375)"/>
</clipPath>
</defs>
</svg>
