<svg width="16" height="16" viewBox="0 0 16 16" fill="none" xmlns="http://www.w3.org/2000/svg">
<path d="M15.977 6.07562C15.9219 5.8977 15.7752 5.76804 15.5987 5.74118L10.6386 4.98558L8.42034 0.273901C8.3414 0.106173 8.17843 0 8.00003 0C7.82159 0 7.65865 0.106173 7.57968 0.273901L5.36132 4.98558L0.401338 5.74118C0.224808 5.76804 0.0780893 5.8977 0.0229645 6.07558C-0.0321915 6.2535 0.0138083 6.44878 0.141589 6.57932L3.73057 10.2469L2.88345 15.4256C2.85327 15.6099 2.92558 15.7962 3.06992 15.9062C3.15158 15.9684 3.2483 16 3.34548 16C3.42011 16 3.49498 15.9814 3.56354 15.9436L8 13.4985L12.4363 15.9435C12.5942 16.0306 12.7856 16.0161 12.9299 15.9061C13.0743 15.7962 13.1466 15.6099 13.1164 15.4255L12.269 10.2469L15.8584 6.57929C15.9862 6.44878 16.0322 6.2535 15.977 6.07562Z" fill="#FF7F27"/>
</svg>
