<svg width="16" height="15" viewBox="0 0 16 15" fill="none" xmlns="http://www.w3.org/2000/svg">
<path fill-rule="evenodd" clip-rule="evenodd" d="M15 7.95313H1C0.44 7.95313 0 7.575 0 7.09375C0 6.6125 0.44 6.23438 1 6.23438H15C15.56 6.23438 16 6.6125 16 7.09375C16 7.575 15.56 7.95313 15 7.95313ZM15 1.78125H1C0.44 1.78125 0 1.40313 0 0.921875C0 0.440625 0.44 0.0625 1 0.0625H15C15.56 0.0625 16 0.440625 16 0.921875C16 1.40313 15.56 1.78125 15 1.78125ZM1 12.4063H15C15.56 12.4063 16 12.7844 16 13.2656C16 13.7469 15.56 14.125 15 14.125H1C0.44 14.125 0 13.7469 0 13.2656C0 12.7844 0.44 12.4063 1 12.4063Z" fill="white"/>
</svg>
